<svg xmlns="http://www.w3.org/2000/svg" xmlns:xlink="http://www.w3.org/1999/xlink" viewBox="0 0 109.21 108.48"><defs><style>.cls-1{fill:url(#linear-gradient);}.cls-2{fill:#606060;}</style><linearGradient id="linear-gradient" x1="66.88" y1="119.13" x2="26.9" y2="-3.9" gradientUnits="userSpaceOnUse"><stop offset="0" stop-color="#fff94f"/><stop offset="0.67" stop-color="#f17105"/><stop offset="1" stop-color="#d11149"/></linearGradient></defs><g id="OBJECTS"><path class="cls-1" d="M57.36,11.38a23.28,23.28,0,0,0-4.92.11,25,25,0,0,0-5.13,1.33,36,36,0,0,0-10.15,6,56.7,56.7,0,0,0-8.95,9.43,46.46,46.46,0,0,0-6.53,11,34.73,34.73,0,0,0-1.8,5.83c-.21,1-.37,2-.49,3a22.35,22.35,0,0,0-.16,2.76A12.78,12.78,0,0,0,19.4,53c.08.49.18.65-.06.45A1.94,1.94,0,0,0,18.22,53c-.1,0-.1.06,0,.08a1.51,1.51,0,0,0,.33,0A2.5,2.5,0,0,0,19,53a8.88,8.88,0,0,0,2.19-.71,20.64,20.64,0,0,0,2.61-1.41c1.84-1.12,3.78-2.57,5.87-4.08,1-.76,2.13-1.54,3.27-2.32s2.37-1.55,3.6-2.28a41.59,41.59,0,0,1,8.06-3.64,27.82,27.82,0,0,1,9.34-1.42,21.83,21.83,0,0,1,9.49,2.43l1.06.59.53.3c.15.08.45.28.66.42a11.54,11.54,0,0,1,2.39,2.24,10.52,10.52,0,0,1,2.35,6.29,11,11,0,0,1-1.61,6.06,14.24,14.24,0,0,1-1.45,2c-.48.55-.92,1.13-1.42,1.66a37.2,37.2,0,0,1-6.44,5.51c-2.24,1.55-4.47,2.85-6.54,4.16a41.78,41.78,0,0,0-5.69,4.14,27.18,27.18,0,0,0-2.39,2.41,15.55,15.55,0,0,0-1.07,1.33l-.52.68a5.91,5.91,0,0,0-.41.61,8.69,8.69,0,0,0-1.44,5.31,1.84,1.84,0,0,0,.26.74,2.59,2.59,0,0,0,.85.7,13,13,0,0,0,2.92,1.39,11.35,11.35,0,0,0,6.41.18A14.41,14.41,0,0,0,55,85c1-.52,2-1.28,3.19-2a8.89,8.89,0,0,1,2-.92,5.44,5.44,0,0,1,1.25-.22,3.86,3.86,0,0,1,1.36.18,5.31,5.31,0,0,1,3.29,3.34,9.61,9.61,0,0,1,.47,4.16c-.11,1.32-.27,2.53-.28,3.74a18,18,0,0,0,1.41,7.19,10.59,10.59,0,0,0,2,3.11A4.62,4.62,0,0,0,73,105.18a4.76,4.76,0,0,1-3.52-1.3,10.84,10.84,0,0,1-2.38-3,19,19,0,0,1-2.2-7.45c-.23-2.64.25-5.25-.73-7.13a3.08,3.08,0,0,0-2-1.77,3.56,3.56,0,0,0-2.46,1c-.92.66-1.88,1.55-3.06,2.33a17.57,17.57,0,0,1-3.74,1.91,15.28,15.28,0,0,1-8.56.55,16.68,16.68,0,0,1-4.09-1.49,7.28,7.28,0,0,1-2.18-1.54,5.47,5.47,0,0,1-.92-1.28,8,8,0,0,1-.55-1.33,10.7,10.7,0,0,1-.18-5,16.39,16.39,0,0,1,1.41-4.33,11.2,11.2,0,0,1,.55-1l.55-.89a20.23,20.23,0,0,1,1.16-1.74,31.83,31.83,0,0,1,2.65-3.25A47.86,47.86,0,0,1,48.87,63c4.18-3.17,8-5.89,10.55-9.38.33-.42.61-.88.93-1.32A7,7,0,0,0,61,51.14a1.7,1.7,0,0,0,.16-1.21,1.18,1.18,0,0,0-.45-.62,1.83,1.83,0,0,0-.44-.28L60.14,49l-.32-.13-.63-.28c-3.37-1.36-7-.94-10.71.66A30.05,30.05,0,0,0,43,52.39q-1.34,1-2.64,2c-.89.73-1.78,1.51-2.72,2.34-1.87,1.64-3.83,3.43-6.16,5.19a34.33,34.33,0,0,1-3.85,2.57,23.09,23.09,0,0,1-4.83,2.15,14.09,14.09,0,0,1-1.39.38c-.48.11-.93.22-1.55.31a14.06,14.06,0,0,1-3.79,0,12.83,12.83,0,0,1-4.15-1.25,13.27,13.27,0,0,1-3.55-2.63,16.19,16.19,0,0,1-3.61-6.18A26.24,26.24,0,0,1,3.63,52a39.81,39.81,0,0,1-.21-4.82c0-1.53.12-3,.3-4.56a51.28,51.28,0,0,1,1.82-8.9A64.22,64.22,0,0,1,13,17.82,76.31,76.31,0,0,1,23.68,4.19,57.18,57.18,0,0,1,38.62-6.65a47.13,47.13,0,0,1,9.26-3.42,45.75,45.75,0,0,1,10.17-1.28A11.38,11.38,0,0,1,69.63-.16,11.38,11.38,0,0,1,58.44,11.41c-.34,0-.69,0-1,0Z"/><rect class="cls-2" x="96.21" y="6.54" width="3.45" height="13.47" transform="translate(59.29 104.24) rotate(-74.7)"/><polygon class="cls-2" points="82.07 96.81 103.38 18.88 90.39 15.33 69.07 93.26 69.07 93.26 70.66 99.33 77.61 101.23 82.08 96.81 82.07 96.81"/><polygon class="cls-2" points="71.32 101.84 72.49 106.3 75.77 103.06 71.32 101.84"/><path class="cls-2" d="M105.48,11.22l1.26-4.6a3.4,3.4,0,0,0-2.38-4.16L97.9.69a3.4,3.4,0,0,0-4.16,2.38L92.48,7.66Z"/></g></svg>