<svg xmlns="http://www.w3.org/2000/svg" viewBox="0 0 210.9 124.16"><defs><style>.cls-1{font-size:88.53px;}.cls-1,.cls-4{fill:#e83d3d;}.cls-1,.cls-2{font-family:Lato-Black, Lato Black;font-weight:800;}.cls-2{font-size:29.13px;letter-spacing:0.1em;}.cls-2,.cls-3{fill:#2d2c2c;}</style></defs><g id="OBJECTS"><text class="cls-1" transform="translate(51.49 86.2)">od</text><text class="cls-2" transform="translate(60.89 118.4)">HTML</text><polygon class="cls-3" points="157.72 71.98 157.72 53.94 175.08 41.36 183.66 53.2 157.72 71.98"/><path class="cls-3" d="M51.49,83.35v18.06L11.33,72.33A12.47,12.47,0,0,1,8.9,70l13.63-7.58Z"/><path class="cls-4" d="M51.49,23.37V41.42l-29,21L9.85,71.05A10.79,10.79,0,0,1,8.9,70a8.78,8.78,0,0,1-.76-1.08,12.23,12.23,0,0,1,3.19-16.43Z"/><path class="cls-3" d="M157.72,83.35v18.06l40.17-29.08a10.63,10.63,0,0,0,1.47-1.28,10.9,10.9,0,0,0,1-1.08l-13.63-7.58Z"/><path class="cls-4" d="M157.72,23.37V41.42l29,21,12.67,8.66a10.9,10.9,0,0,0,1-1.08,8.69,8.69,0,0,0,.75-1.08,12.24,12.24,0,0,0-3.18-16.43Z"/></g></svg>